<svg width="900" height="600" viewBox="0 0 900 600" xmlns="http://www.w3.org/2000/svg">
  <rect width="900" height="600" fill="#ffffff"/>
  
  <rect x="0" y="0" width="900" height="44" fill="#e8e8e8"/>
  <circle cx="18" cy="22" r="5" fill="#ff5f57"/>
  <circle cx="36" cy="22" r="5" fill="#febc2e"/>
  <circle cx="54" cy="22" r="5" fill="#28c840"/>
  <rect x="90" y="12" width="720" height="20" rx="10" fill="white" opacity="0.85"/>
  <rect x="102" y="19" width="120" height="6" rx="3" fill="#999"/>
  <rect x="0" y="44" width="900" height="556" fill="#eef3f8"/><rect x="0" y="44" width="900" height="140" fill="#0A66C2"/><circle cx="120" cy="184" r="60" fill="#ffffff"/><rect x="210" y="204" width="200" height="16" rx="8" fill="#cccccc"/><rect x="210" y="228" width="140" height="10" rx="5" fill="#bbb"/><rect x="60" y="274" width="500" height="300" rx="8" fill="#ffffff"/><rect x="90" y="304" width="420" height="12" rx="6" fill="#cccccc"/><rect x="90" y="324" width="300" height="8" rx="4" fill="#e0e0e0"/><rect x="90" y="364" width="420" height="12" rx="6" fill="#cccccc"/><rect x="90" y="384" width="300" height="8" rx="4" fill="#e0e0e0"/><rect x="90" y="424" width="420" height="12" rx="6" fill="#cccccc"/><rect x="90" y="444" width="300" height="8" rx="4" fill="#e0e0e0"/><rect x="90" y="484" width="420" height="12" rx="6" fill="#cccccc"/><rect x="90" y="504" width="300" height="8" rx="4" fill="#e0e0e0"/><rect x="590" y="274" width="260" height="300" rx="8" fill="#ffffff"/><rect x="615" y="298" width="120" height="12" rx="6" fill="#cccccc"/><circle cx="630" cy="344" r="20" fill="#0A66C2"/><rect x="660" y="338" width="150" height="10" rx="5" fill="#cccccc"/><circle cx="630" cy="414" r="20" fill="#0A66C2"/><rect x="660" y="408" width="150" height="10" rx="5" fill="#cccccc"/><circle cx="630" cy="484" r="20" fill="#0A66C2"/><rect x="660" y="478" width="150" height="10" rx="5" fill="#cccccc"/>
</svg>
