<svg width="900" height="600" viewBox="0 0 900 600" xmlns="http://www.w3.org/2000/svg">
  <rect width="900" height="600" fill="#ffffff"/>
  
  <rect x="0" y="0" width="900" height="44" fill="#e8e8e8"/>
  <circle cx="18" cy="22" r="5" fill="#ff5f57"/>
  <circle cx="36" cy="22" r="5" fill="#febc2e"/>
  <circle cx="54" cy="22" r="5" fill="#28c840"/>
  <rect x="90" y="12" width="720" height="20" rx="10" fill="white" opacity="0.85"/>
  <rect x="102" y="19" width="120" height="6" rx="3" fill="#999"/>
  <rect x="0" y="44" width="900" height="556" fill="#121212"/><rect x="0" y="44" width="200" height="556" fill="#000000"/><rect x="24" y="74" width="130" height="9" rx="4.5" fill="#888"/><rect x="24" y="106" width="130" height="9" rx="4.5" fill="#1DB954"/><rect x="24" y="138" width="130" height="9" rx="4.5" fill="#888"/><rect x="24" y="170" width="130" height="9" rx="4.5" fill="#888"/><rect x="24" y="202" width="130" height="9" rx="4.5" fill="#888"/><rect x="24" y="234" width="130" height="9" rx="4.5" fill="#888"/><rect x="230" y="64" width="120" height="120" fill="#1DB954" opacity="0.5"/><rect x="370" y="104" width="220" height="20" rx="10" fill="#cccccc"/><rect x="370" y="134" width="140" height="10" rx="5" fill="#999"/><circle cx="250" cy="204" r="24" fill="#1DB954"/><rect x="230" y="254" width="14" height="8" rx="4" fill="#666"/><rect x="260" y="254" width="220" height="9" rx="4.5" fill="#1DB954"/><rect x="780" y="254" width="40" height="8" rx="4" fill="#666"/><rect x="230" y="288" width="14" height="8" rx="4" fill="#666"/><rect x="260" y="288" width="220" height="9" rx="4.5" fill="#ccc"/><rect x="780" y="288" width="40" height="8" rx="4" fill="#666"/><rect x="230" y="322" width="14" height="8" rx="4" fill="#666"/><rect x="260" y="322" width="220" height="9" rx="4.5" fill="#ccc"/><rect x="780" y="322" width="40" height="8" rx="4" fill="#666"/><rect x="230" y="356" width="14" height="8" rx="4" fill="#666"/><rect x="260" y="356" width="220" height="9" rx="4.5" fill="#ccc"/><rect x="780" y="356" width="40" height="8" rx="4" fill="#666"/><rect x="230" y="390" width="14" height="8" rx="4" fill="#666"/><rect x="260" y="390" width="220" height="9" rx="4.5" fill="#ccc"/><rect x="780" y="390" width="40" height="8" rx="4" fill="#666"/><rect x="230" y="424" width="14" height="8" rx="4" fill="#666"/><rect x="260" y="424" width="220" height="9" rx="4.5" fill="#ccc"/><rect x="780" y="424" width="40" height="8" rx="4" fill="#666"/><rect x="0" y="530" width="900" height="70" fill="#181818"/><rect x="20" y="544" width="42" height="42" fill="#1DB954" opacity="0.6"/><rect x="74" y="550" width="140" height="8" rx="4" fill="#eee"/><rect x="74" y="564" width="90" height="7" rx="3.5" fill="#888"/><rect x="300" y="552" width="300" height="3" rx="1.5" fill="#444"/><rect x="300" y="552" width="120" height="3" rx="1.5" fill="#1DB954"/>
</svg>
