<svg width="900" height="600" viewBox="0 0 900 600" xmlns="http://www.w3.org/2000/svg">
  <rect width="900" height="600" fill="#ffffff"/>
  
  <rect x="0" y="0" width="900" height="44" fill="#e8e8e8"/>
  <circle cx="18" cy="22" r="5" fill="#ff5f57"/>
  <circle cx="36" cy="22" r="5" fill="#febc2e"/>
  <circle cx="54" cy="22" r="5" fill="#28c840"/>
  <rect x="90" y="12" width="720" height="20" rx="10" fill="white" opacity="0.85"/>
  <rect x="102" y="19" width="120" height="6" rx="3" fill="#999"/>
  <rect x="0" y="44" width="900" height="556" fill="#f8f8f8"/><rect x="0" y="44" width="300" height="556" fill="#ffffff"/><rect x="0" y="44" width="300" height="50" fill="#25D366"/><circle cx="26" cy="69" r="12" fill="white"/><rect x="0" y="94" width="300" height="1" fill="#eee"/><circle cx="30" cy="126" r="20" fill="#ccc"/><rect x="64" y="114" width="130" height="10" rx="5" fill="#333"/><rect x="64" y="132" width="170" height="8" rx="4" fill="#999"/><rect x="260" y="114" width="24" height="7" rx="3.5" fill="#bbb"/><rect x="0" y="158" width="300" height="1" fill="#eee"/><circle cx="30" cy="190" r="20" fill="#25D366"/><rect x="64" y="178" width="130" height="10" rx="5" fill="#333"/><rect x="64" y="196" width="170" height="8" rx="4" fill="#999"/><rect x="260" y="178" width="24" height="7" rx="3.5" fill="#bbb"/><rect x="0" y="222" width="300" height="1" fill="#eee"/><circle cx="30" cy="254" r="20" fill="#ccc"/><rect x="64" y="242" width="130" height="10" rx="5" fill="#333"/><rect x="64" y="260" width="170" height="8" rx="4" fill="#999"/><rect x="260" y="242" width="24" height="7" rx="3.5" fill="#bbb"/><rect x="0" y="286" width="300" height="1" fill="#eee"/><circle cx="30" cy="318" r="20" fill="#ccc"/><rect x="64" y="306" width="130" height="10" rx="5" fill="#333"/><rect x="64" y="324" width="170" height="8" rx="4" fill="#999"/><rect x="260" y="306" width="24" height="7" rx="3.5" fill="#bbb"/><rect x="0" y="350" width="300" height="1" fill="#eee"/><circle cx="30" cy="382" r="20" fill="#ccc"/><rect x="64" y="370" width="130" height="10" rx="5" fill="#333"/><rect x="64" y="388" width="170" height="8" rx="4" fill="#999"/><rect x="260" y="370" width="24" height="7" rx="3.5" fill="#bbb"/><rect x="0" y="414" width="300" height="1" fill="#eee"/><circle cx="30" cy="446" r="20" fill="#ccc"/><rect x="64" y="434" width="130" height="10" rx="5" fill="#333"/><rect x="64" y="452" width="170" height="8" rx="4" fill="#999"/><rect x="260" y="434" width="24" height="7" rx="3.5" fill="#bbb"/><rect x="0" y="478" width="300" height="1" fill="#eee"/><circle cx="30" cy="510" r="20" fill="#ccc"/><rect x="64" y="498" width="130" height="10" rx="5" fill="#333"/><rect x="64" y="516" width="170" height="8" rx="4" fill="#999"/><rect x="260" y="498" width="24" height="7" rx="3.5" fill="#bbb"/><rect x="300" y="44" width="600" height="56" fill="#ffffff"/><circle cx="334" cy="72" r="16" fill="#25D366"/><rect x="362" y="66" width="120" height="11" rx="5.5" fill="#333"/><rect x="300" y="100" width="600" height="436" fill="#e8ded1"/><circle cx="320" cy="120" r="1.5" fill="rgba(0,0,0,0.05)"/><circle cx="320" cy="160" r="1.5" fill="rgba(0,0,0,0.05)"/><circle cx="320" cy="200" r="1.5" fill="rgba(0,0,0,0.05)"/><circle cx="320" cy="240" r="1.5" fill="rgba(0,0,0,0.05)"/><circle cx="320" cy="280" r="1.5" fill="rgba(0,0,0,0.05)"/><circle cx="320" cy="320" r="1.5" fill="rgba(0,0,0,0.05)"/><circle cx="320" cy="360" r="1.5" fill="rgba(0,0,0,0.05)"/><circle cx="320" cy="400" r="1.5" fill="rgba(0,0,0,0.05)"/><circle cx="320" cy="440" r="1.5" fill="rgba(0,0,0,0.05)"/><circle cx="320" cy="480" r="1.5" fill="rgba(0,0,0,0.05)"/><circle cx="320" cy="520" r="1.5" fill="rgba(0,0,0,0.05)"/><circle cx="360" cy="120" r="1.5" fill="rgba(0,0,0,0.05)"/><circle cx="360" cy="160" r="1.5" fill="rgba(0,0,0,0.05)"/><circle cx="360" cy="200" r="1.5" fill="rgba(0,0,0,0.05)"/><circle cx="360" cy="240" r="1.5" fill="rgba(0,0,0,0.05)"/><circle cx="360" cy="280" r="1.5" fill="rgba(0,0,0,0.05)"/><circle cx="360" cy="320" r="1.5" fill="rgba(0,0,0,0.05)"/><circle cx="360" cy="360" r="1.5" fill="rgba(0,0,0,0.05)"/><circle cx="360" cy="400" r="1.5" fill="rgba(0,0,0,0.05)"/><circle cx="360" cy="440" r="1.5" fill="rgba(0,0,0,0.05)"/><circle cx="360" cy="480" r="1.5" fill="rgba(0,0,0,0.05)"/><circle cx="360" cy="520" r="1.5" fill="rgba(0,0,0,0.05)"/><circle cx="400" cy="120" r="1.5" fill="rgba(0,0,0,0.05)"/><circle cx="400" cy="160" r="1.5" fill="rgba(0,0,0,0.05)"/><circle cx="400" cy="200" r="1.5" fill="rgba(0,0,0,0.05)"/><circle cx="400" cy="240" r="1.5" fill="rgba(0,0,0,0.05)"/><circle cx="400" cy="280" r="1.5" fill="rgba(0,0,0,0.05)"/><circle cx="400" cy="320" r="1.5" fill="rgba(0,0,0,0.05)"/><circle cx="400" cy="360" r="1.5" fill="rgba(0,0,0,0.05)"/><circle cx="400" cy="400" r="1.5" fill="rgba(0,0,0,0.05)"/><circle cx="400" cy="440" r="1.5" fill="rgba(0,0,0,0.05)"/><circle cx="400" cy="480" r="1.5" fill="rgba(0,0,0,0.05)"/><circle cx="400" cy="520" r="1.5" fill="rgba(0,0,0,0.05)"/><circle cx="440" cy="120" r="1.5" fill="rgba(0,0,0,0.05)"/><circle cx="440" cy="160" r="1.5" fill="rgba(0,0,0,0.05)"/><circle cx="440" cy="200" r="1.5" fill="rgba(0,0,0,0.05)"/><circle cx="440" cy="240" r="1.5" fill="rgba(0,0,0,0.05)"/><circle cx="440" cy="280" r="1.5" fill="rgba(0,0,0,0.05)"/><circle cx="440" cy="320" r="1.5" fill="rgba(0,0,0,0.05)"/><circle cx="440" cy="360" r="1.5" fill="rgba(0,0,0,0.05)"/><circle cx="440" cy="400" r="1.5" fill="rgba(0,0,0,0.05)"/><circle cx="440" cy="440" r="1.5" fill="rgba(0,0,0,0.05)"/><circle cx="440" cy="480" r="1.5" fill="rgba(0,0,0,0.05)"/><circle cx="440" cy="520" r="1.5" fill="rgba(0,0,0,0.05)"/><circle cx="480" cy="120" r="1.5" fill="rgba(0,0,0,0.05)"/><circle cx="480" cy="160" r="1.5" fill="rgba(0,0,0,0.05)"/><circle cx="480" cy="200" r="1.5" fill="rgba(0,0,0,0.05)"/><circle cx="480" cy="240" r="1.5" fill="rgba(0,0,0,0.05)"/><circle cx="480" cy="280" r="1.5" fill="rgba(0,0,0,0.05)"/><circle cx="480" cy="320" r="1.5" fill="rgba(0,0,0,0.05)"/><circle cx="480" cy="360" r="1.5" fill="rgba(0,0,0,0.05)"/><circle cx="480" cy="400" r="1.5" fill="rgba(0,0,0,0.05)"/><circle cx="480" cy="440" r="1.5" fill="rgba(0,0,0,0.05)"/><circle cx="480" cy="480" r="1.5" fill="rgba(0,0,0,0.05)"/><circle cx="480" cy="520" r="1.5" fill="rgba(0,0,0,0.05)"/><circle cx="520" cy="120" r="1.5" fill="rgba(0,0,0,0.05)"/><circle cx="520" cy="160" r="1.5" fill="rgba(0,0,0,0.05)"/><circle cx="520" cy="200" r="1.5" fill="rgba(0,0,0,0.05)"/><circle cx="520" cy="240" r="1.5" fill="rgba(0,0,0,0.05)"/><circle cx="520" cy="280" r="1.5" fill="rgba(0,0,0,0.05)"/><circle cx="520" cy="320" r="1.5" fill="rgba(0,0,0,0.05)"/><circle cx="520" cy="360" r="1.5" fill="rgba(0,0,0,0.05)"/><circle cx="520" cy="400" r="1.5" fill="rgba(0,0,0,0.05)"/><circle cx="520" cy="440" r="1.5" fill="rgba(0,0,0,0.05)"/><circle cx="520" cy="480" r="1.5" fill="rgba(0,0,0,0.05)"/><circle cx="520" cy="520" r="1.5" fill="rgba(0,0,0,0.05)"/><circle cx="560" cy="120" r="1.5" fill="rgba(0,0,0,0.05)"/><circle cx="560" cy="160" r="1.5" fill="rgba(0,0,0,0.05)"/><circle cx="560" cy="200" r="1.5" fill="rgba(0,0,0,0.05)"/><circle cx="560" cy="240" r="1.5" fill="rgba(0,0,0,0.05)"/><circle cx="560" cy="280" r="1.5" fill="rgba(0,0,0,0.05)"/><circle cx="560" cy="320" r="1.5" fill="rgba(0,0,0,0.05)"/><circle cx="560" cy="360" r="1.5" fill="rgba(0,0,0,0.05)"/><circle cx="560" cy="400" r="1.5" fill="rgba(0,0,0,0.05)"/><circle cx="560" cy="440" r="1.5" fill="rgba(0,0,0,0.05)"/><circle cx="560" cy="480" r="1.5" fill="rgba(0,0,0,0.05)"/><circle cx="560" cy="520" r="1.5" fill="rgba(0,0,0,0.05)"/><circle cx="600" cy="120" r="1.5" fill="rgba(0,0,0,0.05)"/><circle cx="600" cy="160" r="1.5" fill="rgba(0,0,0,0.05)"/><circle cx="600" cy="200" r="1.5" fill="rgba(0,0,0,0.05)"/><circle cx="600" cy="240" r="1.5" fill="rgba(0,0,0,0.05)"/><circle cx="600" cy="280" r="1.5" fill="rgba(0,0,0,0.05)"/><circle cx="600" cy="320" r="1.5" fill="rgba(0,0,0,0.05)"/><circle cx="600" cy="360" r="1.5" fill="rgba(0,0,0,0.05)"/><circle cx="600" cy="400" r="1.5" fill="rgba(0,0,0,0.05)"/><circle cx="600" cy="440" r="1.5" fill="rgba(0,0,0,0.05)"/><circle cx="600" cy="480" r="1.5" fill="rgba(0,0,0,0.05)"/><circle cx="600" cy="520" r="1.5" fill="rgba(0,0,0,0.05)"/><circle cx="640" cy="120" r="1.5" fill="rgba(0,0,0,0.05)"/><circle cx="640" cy="160" r="1.5" fill="rgba(0,0,0,0.05)"/><circle cx="640" cy="200" r="1.5" fill="rgba(0,0,0,0.05)"/><circle cx="640" cy="240" r="1.5" fill="rgba(0,0,0,0.05)"/><circle cx="640" cy="280" r="1.5" fill="rgba(0,0,0,0.05)"/><circle cx="640" cy="320" r="1.5" fill="rgba(0,0,0,0.05)"/><circle cx="640" cy="360" r="1.5" fill="rgba(0,0,0,0.05)"/><circle cx="640" cy="400" r="1.5" fill="rgba(0,0,0,0.05)"/><circle cx="640" cy="440" r="1.5" fill="rgba(0,0,0,0.05)"/><circle cx="640" cy="480" r="1.5" fill="rgba(0,0,0,0.05)"/><circle cx="640" cy="520" r="1.5" fill="rgba(0,0,0,0.05)"/><circle cx="680" cy="120" r="1.5" fill="rgba(0,0,0,0.05)"/><circle cx="680" cy="160" r="1.5" fill="rgba(0,0,0,0.05)"/><circle cx="680" cy="200" r="1.5" fill="rgba(0,0,0,0.05)"/><circle cx="680" cy="240" r="1.5" fill="rgba(0,0,0,0.05)"/><circle cx="680" cy="280" r="1.5" fill="rgba(0,0,0,0.05)"/><circle cx="680" cy="320" r="1.5" fill="rgba(0,0,0,0.05)"/><circle cx="680" cy="360" r="1.5" fill="rgba(0,0,0,0.05)"/><circle cx="680" cy="400" r="1.5" fill="rgba(0,0,0,0.05)"/><circle cx="680" cy="440" r="1.5" fill="rgba(0,0,0,0.05)"/><circle cx="680" cy="480" r="1.5" fill="rgba(0,0,0,0.05)"/><circle cx="680" cy="520" r="1.5" fill="rgba(0,0,0,0.05)"/><circle cx="720" cy="120" r="1.5" fill="rgba(0,0,0,0.05)"/><circle cx="720" cy="160" r="1.5" fill="rgba(0,0,0,0.05)"/><circle cx="720" cy="200" r="1.5" fill="rgba(0,0,0,0.05)"/><circle cx="720" cy="240" r="1.5" fill="rgba(0,0,0,0.05)"/><circle cx="720" cy="280" r="1.5" fill="rgba(0,0,0,0.05)"/><circle cx="720" cy="320" r="1.5" fill="rgba(0,0,0,0.05)"/><circle cx="720" cy="360" r="1.5" fill="rgba(0,0,0,0.05)"/><circle cx="720" cy="400" r="1.5" fill="rgba(0,0,0,0.05)"/><circle cx="720" cy="440" r="1.5" fill="rgba(0,0,0,0.05)"/><circle cx="720" cy="480" r="1.5" fill="rgba(0,0,0,0.05)"/><circle cx="720" cy="520" r="1.5" fill="rgba(0,0,0,0.05)"/><circle cx="760" cy="120" r="1.5" fill="rgba(0,0,0,0.05)"/><circle cx="760" cy="160" r="1.5" fill="rgba(0,0,0,0.05)"/><circle cx="760" cy="200" r="1.5" fill="rgba(0,0,0,0.05)"/><circle cx="760" cy="240" r="1.5" fill="rgba(0,0,0,0.05)"/><circle cx="760" cy="280" r="1.5" fill="rgba(0,0,0,0.05)"/><circle cx="760" cy="320" r="1.5" fill="rgba(0,0,0,0.05)"/><circle cx="760" cy="360" r="1.5" fill="rgba(0,0,0,0.05)"/><circle cx="760" cy="400" r="1.5" fill="rgba(0,0,0,0.05)"/><circle cx="760" cy="440" r="1.5" fill="rgba(0,0,0,0.05)"/><circle cx="760" cy="480" r="1.5" fill="rgba(0,0,0,0.05)"/><circle cx="760" cy="520" r="1.5" fill="rgba(0,0,0,0.05)"/><circle cx="800" cy="120" r="1.5" fill="rgba(0,0,0,0.05)"/><circle cx="800" cy="160" r="1.5" fill="rgba(0,0,0,0.05)"/><circle cx="800" cy="200" r="1.5" fill="rgba(0,0,0,0.05)"/><circle cx="800" cy="240" r="1.5" fill="rgba(0,0,0,0.05)"/><circle cx="800" cy="280" r="1.5" fill="rgba(0,0,0,0.05)"/><circle cx="800" cy="320" r="1.5" fill="rgba(0,0,0,0.05)"/><circle cx="800" cy="360" r="1.5" fill="rgba(0,0,0,0.05)"/><circle cx="800" cy="400" r="1.5" fill="rgba(0,0,0,0.05)"/><circle cx="800" cy="440" r="1.5" fill="rgba(0,0,0,0.05)"/><circle cx="800" cy="480" r="1.5" fill="rgba(0,0,0,0.05)"/><circle cx="800" cy="520" r="1.5" fill="rgba(0,0,0,0.05)"/><circle cx="840" cy="120" r="1.5" fill="rgba(0,0,0,0.05)"/><circle cx="840" cy="160" r="1.5" fill="rgba(0,0,0,0.05)"/><circle cx="840" cy="200" r="1.5" fill="rgba(0,0,0,0.05)"/><circle cx="840" cy="240" r="1.5" fill="rgba(0,0,0,0.05)"/><circle cx="840" cy="280" r="1.5" fill="rgba(0,0,0,0.05)"/><circle cx="840" cy="320" r="1.5" fill="rgba(0,0,0,0.05)"/><circle cx="840" cy="360" r="1.5" fill="rgba(0,0,0,0.05)"/><circle cx="840" cy="400" r="1.5" fill="rgba(0,0,0,0.05)"/><circle cx="840" cy="440" r="1.5" fill="rgba(0,0,0,0.05)"/><circle cx="840" cy="480" r="1.5" fill="rgba(0,0,0,0.05)"/><circle cx="840" cy="520" r="1.5" fill="rgba(0,0,0,0.05)"/><circle cx="880" cy="120" r="1.5" fill="rgba(0,0,0,0.05)"/><circle cx="880" cy="160" r="1.5" fill="rgba(0,0,0,0.05)"/><circle cx="880" cy="200" r="1.5" fill="rgba(0,0,0,0.05)"/><circle cx="880" cy="240" r="1.5" fill="rgba(0,0,0,0.05)"/><circle cx="880" cy="280" r="1.5" fill="rgba(0,0,0,0.05)"/><circle cx="880" cy="320" r="1.5" fill="rgba(0,0,0,0.05)"/><circle cx="880" cy="360" r="1.5" fill="rgba(0,0,0,0.05)"/><circle cx="880" cy="400" r="1.5" fill="rgba(0,0,0,0.05)"/><circle cx="880" cy="440" r="1.5" fill="rgba(0,0,0,0.05)"/><circle cx="880" cy="480" r="1.5" fill="rgba(0,0,0,0.05)"/><circle cx="880" cy="520" r="1.5" fill="rgba(0,0,0,0.05)"/><rect x="330" y="124" width="200" height="44" rx="12" fill="#ffffff"/><polygon points="330,154 320,160 330,166" fill="#ffffff"/><rect x="344" y="138" width="160" height="8" rx="4" fill="#999"/><rect x="496" y="154" width="24" height="6" rx="3" fill="#bbb"/><rect x="630" y="188" width="240" height="44" rx="12" fill="#dcf8c6"/><polygon points="870,218 880,224 870,230" fill="#dcf8c6"/><rect x="644" y="202" width="200" height="8" rx="4" fill="#999"/><rect x="836" y="218" width="24" height="6" rx="3" fill="#bbb"/><rect x="330" y="252" width="260" height="44" rx="12" fill="#ffffff"/><polygon points="330,282 320,288 330,294" fill="#ffffff"/><rect x="344" y="266" width="220" height="8" rx="4" fill="#999"/><rect x="556" y="282" width="24" height="6" rx="3" fill="#bbb"/><rect x="690" y="316" width="180" height="44" rx="12" fill="#dcf8c6"/><polygon points="870,346 880,352 870,358" fill="#dcf8c6"/><rect x="704" y="330" width="140" height="8" rx="4" fill="#999"/><rect x="836" y="346" width="24" height="6" rx="3" fill="#bbb"/><rect x="300" y="536" width="600" height="64" fill="#ffffff"/><rect x="320" y="554" width="500" height="28" rx="14" fill="#f8f8f8"/><circle cx="866" cy="568" r="18" fill="#25D366"/>
</svg>
